<svg xmlns="http://www.w3.org/2000/svg" width="200" height="200"><path d="M97.043 197.828c-2.344-3.803-2.532-7.456-.64-12.45 1.6-4.217 1.293-5.01-4.74-12.21-4.295-5.126-4.882-12.396-1.662-20.608 2.48-6.324 2.74-6.576 5.236-5.07 1.35.813 1.314 1.552-.268 5.763-.998 2.656-1.813 6.97-1.81 9.586.004 3.935.568 5.323 3.263 8.038 2.28 2.296 3.03 2.678 2.497 1.272-.418-1.105-.99-4.326-1.27-7.157-.66-6.698 3.862-17.15 7.833-18.102 1.392-.332 2.733-.412 2.98-.177.246.235-.96 3.27-2.684 6.742-3.687 7.437-3.938 12.145-1.024 19.197 3.067 7.422 2.77 11.99-1.077 16.61-2.956 3.547-3.61 5-4.413 9.84-.243 1.463-.69 1.206-2.22-1.274zm24.17-26.687c-5.093-11.837-9.49-22.358-9.772-23.38-.39-1.43.356-2.113 3.237-2.956 3.733-1.093 3.75-1.084 4.777 2.574 2.82 10.023 11.546 44.787 11.303 45.02-.154.146-4.448-9.42-9.543-21.257zM68.33 189.734c2.495-10.06 11.267-43.938 11.623-44.89.33-.885 1.38-.905 4.192-.082 2.063.605 3.75 1.377 3.75 1.717 0 .905-18.95 44.585-19.62 45.224-.312.3-.288-.587.055-1.967zM37.325 179.47c0-4.843 2.303-8.92 6.448-11.415 4.556-2.743 4.368-2.238 4.51-12.142.092-6.298.502-7.733 3.298-11.532 1.757-2.385 5.452-5.67 8.212-7.296 4.535-2.674 5.175-2.81 6.652-1.4 1.478 1.41 1.364 1.74-1.186 3.438-9.82 6.536-12.513 10.385-11.938 17.072l.335 3.898 2.41-4.988c3.18-6.574 4.896-8.256 11.844-11.604 5.13-2.472 6.13-2.652 8.372-1.508 2.522 1.288 2.492 1.327-3.172 4.173-8.388 4.216-11.865 8.047-14.025 15.455-2.618 8.982-4.888 11.598-11.705 13.488-3.554.986-6.522 2.576-7.878 4.22l-2.177 2.64v-2.5zm118.524-.07c-3.368-1.806-4.56-3.253-5.937-7.196-1.835-5.257-4.18-7.577-7.698-7.612-7.72-.08-16.214-7.977-18.545-17.242-1.186-4.717-1.127-5.29.677-6.547 1.84-1.283 2.133-.918 4.253 5.316 2.634 7.748 6.644 12.126 11.973 13.074l3.687.656-3.79-3.396c-5.078-4.55-7.17-8.703-7.945-15.775-.555-5.06-.382-5.996 1.218-6.58 2.49-.912 2.528-.845 3.756 6.428 1.302 7.718 3.655 11.036 11.007 15.52 7.684 4.69 9.412 7.452 9.117 14.572-.187 4.52.228 6.293 1.968 8.403 2.683 3.253 1.783 3.344-3.743.378zM18.615 155.963c1.01-.996 10.017-8.445 20.018-16.554l18.182-14.743 2.33 2.64c1.282 1.453 2.195 3.08 2.03 3.614-.164.534-5.242 3.882-11.284 7.44-28.063 16.52-32.987 19.29-31.276 17.602zm140.204-11.63l-22.313-13.15 2.23-2.88c1.228-1.582 2.63-2.877 3.12-2.877.488 0 8.814 6.394 18.502 14.21 18.23 14.707 22.12 17.978 21.272 17.897-.274-.026-10.54-5.965-22.812-13.2zm-66.722-10.195c-2.03-1.752-5.28-4.44-7.218-5.972-2.853-2.255-3.285-3.06-2.27-4.227 1.042-1.197 2.327-.254 7.615 5.592 6.91 7.636 7.732 9.66 1.873 4.607zm6.287-1.728c-.025-3.013-.436-7.4-.912-9.748-.8-3.94-.693-4.27 1.363-4.27 2.127 0 2.212.4 1.87 8.79-.404 9.838-2.247 13.99-2.32 5.227zm5.517 2.23c.758-1.012 3.552-4.2 6.21-7.082 3.864-4.19 5.07-4.973 6.006-3.896.917 1.053-.29 2.595-5.55 7.08-6.866 5.858-9.12 7.176-6.666 3.897zm-91.862-2.804c-2.23-.938-5.43-1.37-8.1-1.096-4.385.45-4.402.44-2.835-1.842 2.15-3.128 8.363-5.812 11.64-5.027 3.98.953 6.325-.175 8.893-4.275 5.8-9.264 13.26-12.913 23.852-11.67 4.987.585 5.532.892 5.532 3.118 0 2.4-.156 2.45-5.708 1.788-9.222-1.098-14.085 1.21-19.12 9.078l-1.93 3.015 2.594-2.213c5.504-4.694 13.297-6.268 23.26-4.697 2.657.42 4.186 1.342 4.98 3.004 1.023 2.14.894 2.394-1.202 2.355-1.29-.024-4.48-.45-7.09-.946-6.112-1.162-11.224.123-16.45 4.137-4.038 3.1-11.524 6.873-13.575 6.84-.578-.01-2.712-.715-4.74-1.567zm176.595.504c-1.67-.43-4.13-1.763-5.467-2.96-2.736-2.453-5.932-2.327-14.332.566-4.53 1.56-5.373 1.57-10.536.12-6.92-1.944-15.075-8.303-14.006-10.92 1-2.45 1.787-2.25 6.79 1.74 2.416 1.923 6.236 4.024 8.49 4.67 3.534 1.008 4.87.88 9.67-.922l5.57-2.093-5.726-.064c-6.905-.08-13.23-2.773-17.83-7.596-3.017-3.162-4.574-8.547-2.47-8.547.46 0 2.713 1.846 5.004 4.102 6.228 6.135 9.17 7.246 19.485 7.357 10.378.11 13.182 1.352 17.377 7.69 1.84 2.78 3.644 4.212 5.827 4.63 1.74.33 2.948.808 2.685 1.06-1.2 1.144-7.787 1.875-10.53 1.168zM68.405 98.797V83.222h3.16l3.16.002v31.149h-6.32V98.796zm17.346 13.63c1.57-2.796 1.424-26.477-.172-28-.984-.937-.273-1.205 3.198-1.205 4.084 0 4.37.164 3.37 1.943-.6 1.07-1.09 3.782-1.09 6.03 0 3.687.257 4.085 2.634 4.085 2.617 0 2.634-.058 2.634-9.176v-9.176l-4.214.54c-3.802.486-4.214.324-4.214-1.653 0-1.964.454-2.15 4.36-1.796l4.36.396-.518-5.143-.518-5.143h4.27c3.32 0 3.99.268 3.006 1.206-.695.663-1.264 2.983-1.264 5.155v3.95l4.74-.51c4.43-.476 4.742-.354 4.742 1.86 0 2.23-.28 2.333-4.74 1.75l-4.742-.62v9.18c0 9.122.016 9.18 2.634 9.18 2.443 0 2.633-.35 2.633-4.823 0-2.653-.57-5.366-1.265-6.03-.983-.937-.273-1.205 3.198-1.205 4.085 0 4.37.164 3.37 1.943-.6 1.07-1.09 7.203-1.09 13.632 0 6.428.49 12.562 1.09 13.63.996 1.775.717 1.945-3.197 1.945-3.913 0-4.192-.17-3.197-1.944.6-1.07 1.09-4.46 1.09-7.536V99.3H91.055v5.592c0 3.076.49 6.467 1.09 7.536.996 1.774.716 1.944-3.197 1.944-3.914 0-4.194-.17-3.2-1.944zm35.596.86c-1.014-.564-1.844-1.884-1.844-2.933 0-1.788.23-1.817 3.653-.453 4.494 1.792 4.27 1.796 6.28-.122 3.01-2.87 2.03-6.19-2.822-9.54-7.398-5.108-8.964-9.876-4.74-14.444 2.313-2.502 4.127-3.056 8.955-2.73 1.757.117 2.37.785 2.37 2.583 0 2.276-.193 2.355-3.157 1.288-2.596-.935-3.456-.85-4.848.478-2.45 2.338-1.15 4.958 4.87 9.8 4.373 3.516 5.243 4.776 5.243 7.595 0 4.8-4.398 9.573-8.785 9.533-1.832-.016-4.16-.49-5.174-1.054zM21.338 102.422c-11.4-.89-20.998-1.878-21.33-2.197-.33-.32 8.05-1.14 18.623-1.82 10.573-.68 21.948-1.502 25.28-1.823l6.058-.585v8.326l-3.95-.142c-2.174-.077-13.28-.868-24.68-1.757zm126.61-2.125v-4.302l7.11.612c3.912.337 15.538 1.16 25.837 1.83 10.298.67 18.358 1.526 17.91 1.903-.448.378-9.11 1.224-19.25 1.88-10.14.658-21.4 1.462-25.023 1.788l-6.584.593V100.3zM45.135 90.13c-6.106-6.014-9.274-7.285-17.818-7.147-10.982.177-14.628-1.042-18.142-6.067-1.633-2.335-4.53-4.993-6.437-5.906-4.11-1.97-3.058-2.9 3.422-3.023 3.66-.07 5.48.507 8.022 2.548 3.978 3.192 7.547 3.327 14.162.536 7.304-3.08 14.752-1.228 23.51 5.847 3.108 2.513 3.314 2.994 2.007 4.7-1.39 1.814-1.702 1.714-6.933-2.23-6.892-5.196-11.227-6.065-17.812-3.57l-4.96 1.878 4.215.258c9.24.565 11.303 1.352 17 6.49 5.24 4.727 6.913 7.965 4.77 9.23-.486.285-2.738-1.308-5.005-3.542zm106.237 2.463c-1.884-.25-3.496-.88-3.582-1.396-.558-3.322-.264-3.453 7.718-3.453 9.125 0 12.407-1.556 16.118-7.642l2.08-3.412-2.607 1.787c-6.59 4.516-12.673 5.627-22.402 4.094-3.698-.582-7.09-3.684-5.594-5.112.328-.312 3.674-.08 7.437.514 8.53 1.347 12.636.364 18.68-4.473 7.404-5.925 10.55-6.794 17.283-4.774 3.52 1.056 7.15 1.47 9.582 1.094l3.915-.606-3.92 3.738c-3.41 3.254-4.6 3.755-9.17 3.864-2.886.07-5.73.182-6.316.25-.586.07-2.732 2.61-4.768 5.646-5.377 8.016-13.567 11.326-24.454 9.88zM38.38 60.963c-23.29-18.955-23.685-19.375-11.59-12.31 25.826 15.088 34.12 20.164 34.39 21.05.164.527-.752 2.152-2.034 3.612l-2.33 2.654L38.38 60.962zm100.38 11.372l-2.206-2.848 18.542-10.968c25.63-15.162 27.61-16.252 24.985-13.758-4.373 4.156-37.375 30.42-38.224 30.42-.488 0-1.88-1.28-3.095-2.847zm-76.54-6.88c-.325-1.558-.902-4.64-1.282-6.852-.984-5.726-4.15-10.187-9.25-13.038-2.43-1.358-5.822-3.866-7.537-5.574-2.742-2.73-3.138-3.884-3.29-9.61-.11-4.053-.817-7.44-1.88-8.987-.936-1.364-1.288-2.48-.78-2.48 2.036 0 8.11 4.734 9.37 7.307l2.694 5.49c.786 1.603 2.655 3.122 4.478 3.64 10.13 2.88 12.354 4.033 15.325 7.945 1.697 2.234 3.586 5.914 4.198 8.178.613 2.264 1.32 4.8 1.57 5.637.25.837-.477 2.077-1.616 2.756-1.92 1.143-2.202.81-3.817-4.536-2.802-9.272-6.11-12.703-13.856-14.37l-3.478-.747 4.636 3.893c5.4 4.532 7.55 8.488 8.477 15.586.558 4.268.335 5.396-1.353 6.853-1.94 1.676-2.043 1.633-2.61-1.09zm68.91-.78c-1.056-1.212-.36-1.998 4.07-4.6 8.27-4.852 11.457-10.183 10.09-16.883l-.752-3.68-1.418 4.545c-1.707 5.47-6.452 10.337-13.315 13.654-4.017 1.942-5.513 2.227-7.19 1.37-2.864-1.46-1.932-2.514 5.316-6.004 7.334-3.53 8.872-5.408 11.62-14.187 2.784-8.89 5.1-11.466 12.024-13.386 3.66-1.015 6.49-2.56 7.944-4.336l2.256-2.758-.685 4c-.95 5.537-2.53 8.042-6.82 10.802-3.663 2.356-3.69 2.425-3.69 9.863 0 9.427-3.15 15.208-10.858 19.926-5.794 3.547-6.795 3.742-8.593 1.676zm-51.184-8.91C79.094 53.52 67.886 9.362 67.913 8.36c.028-.993 19.936 44.676 19.967 45.804.008.322-1.672 1.08-3.735 1.683-2.813.823-3.863.803-4.2-.083zm34.474-.008c-2.464-.707-3.368-1.49-3.05-2.645.707-2.58 19.06-45.214 19.345-44.94.368.35-11.746 47.774-12.317 48.218-.262.203-2.052-.082-3.978-.633zm-23.853-3.854c.42-1.29 1.885-4.375 3.26-6.857 3.074-5.556 3.144-9.425.296-16.3-3.384-8.167-3.064-13.024 1.19-18.075 2.417-2.866 3.54-5.253 3.54-7.524 0-4.39.953-4.198 3.25.66 1.366 2.89 1.672 5.027 1.114 7.787-.424 2.09-1.016 5.04-1.316 6.556-.418 2.113.248 3.613 2.866 6.457 6.784 7.37 7.892 14.08 3.87 23.445-1.887 4.39-2.802 5.456-4.446 5.18-2.914-.487-2.902-.35-.53-6.09 3.494-8.456 2.51-14.828-3.03-19.61l-2.23-1.925 1.595 4.315c2.365 6.394 1.975 10.074-1.827 17.22-2.545 4.785-4.058 6.523-5.893 6.77-2.15.29-2.37.032-1.708-2.01z" fill="#c41835"/></svg>